# xmcd
#
# Track frame offsets:
#        150
#        30100
#        56387
#        81992
#        100632
#        124375
#        132497
#        157907
#        176640
#        195965
#        227732
#        250972
#        276497
#        291795
#
# Disc length: 4335 seconds
#
# Revision: 0
# Processed by: cddbd v1.5.1PL0 Copyright (c) Steve Scherf et al.
# Submitted via: ExactAudioCopy v0.95a3
#
DISCID=bb10ed0e
DTITLE=Red Snapper - Prince Blimey
DYEAR=1996
DGENRE=Techno
TTITLE0=Crusoe Takes a Trip
TTITLE1=3 Strikes and You're Out
TTITLE2=Thomas the Fib
TTITLE3=Get Some Sleep Tiger
TTITLE4=Fatboy's Dust
TTITLE5=Moonbuggy
TTITLE6=The Paranoid
TTITLE7=Space Sickness
TTITLE8=The Last One
TTITLE9=Digging Doctor What What
TTITLE10=Gridlock
TTITLE11=Lo-beam
TTITLE12=Strike 1 [Bonus Track]
TTITLE13=Last One (Re-Eaten by DJ Food and Coldout) [Bonus Track]
EXTD=
EXTT0=
EXTT1=
EXTT2=
EXTT3=
EXTT4=
EXTT5=
EXTT6=
EXTT7=
EXTT8=
EXTT9=
EXTT10=
EXTT11=
EXTT12=
EXTT13=
PLAYORDER=
